<?xml version="1.0" encoding="UTF-8"?>
<svg version="1.1" xmlns="http://www.w3.org/2000/svg" width="960" height="960">
<path d="M0 0 C1.84310005 -0.01045349 1.84310005 -0.01045349 3.72343445 -0.02111816 C7.66069102 -0.03839467 11.59787008 -0.04529296 15.53515625 -0.046875 C16.54086292 -0.04775871 16.54086292 -0.04775871 17.5668869 -0.04866028 C37.75132102 -0.06117935 57.58681792 0.33958483 77.59765625 3.203125 C79.76037871 3.48466669 81.92313925 3.76591609 84.0859375 4.046875 C160.03587819 14.41515443 230.6171628 44.1828611 293.59765625 87.203125 C294.74186035 87.98333008 294.74186035 87.98333008 295.90917969 88.77929688 C305.55884204 95.39812949 314.62197036 102.70796462 323.59765625 110.203125 C324.20109863 110.70602051 324.80454102 111.20891602 325.42626953 111.72705078 C344.52153017 127.70213635 364.26179255 144.8938357 379.546875 164.58984375 C381.57836127 167.17853769 383.7021038 169.65021511 385.8684082 172.12548828 C445.32411066 240.19591247 482.38109958 329.97008508 493.59765625 419.203125 C493.7457373 420.27997559 493.89381836 421.35682617 494.04638672 422.46630859 C499.24533327 461.13102516 499.24217751 502.60666574 493.59765625 541.203125 C493.40134673 542.62307215 493.20608273 544.04316414 493.01171875 545.46337891 C481.16227783 631.147669 446.44402019 714.39607264 386.59765625 787.203125 C385.83388672 788.11553955 385.83388672 788.11553955 385.0546875 789.04638672 C374.85884862 801.18507022 364.14777591 812.73939454 352.98382568 823.9921875 C351.57912528 825.40878361 350.17841217 826.82933008 348.77783203 828.25 C343.4522094 833.58232634 337.96228047 838.5071864 332.07788086 843.21533203 C329.48101053 845.29661151 326.97027262 847.45394126 324.4699707 849.64892578 C312.33285921 860.28338347 299.31922286 869.50452427 285.91015625 878.453125 C285.34696686 878.82930969 284.78377747 879.20549438 284.20352173 879.59307861 C272.79198596 887.19910579 261.22658939 894.49034161 249.16015625 901.015625 C247.75709229 901.77528564 247.75709229 901.77528564 246.32568359 902.55029297 C228.49037612 912.14657732 210.46585135 920.81753961 191.59765625 928.203125 C190.14746094 928.77111816 190.14746094 928.77111816 188.66796875 929.35058594 C150.56312385 944.07407326 110.19278868 953.72251108 69.59765625 958.203125 C68.82282898 958.28926056 68.04800171 958.37539612 67.24969482 958.46414185 C50.53131079 960.26690184 33.90212772 960.56487331 17.09765625 960.515625 C15.75911466 960.51340193 14.42057299 960.51122545 13.08203125 960.50909424 C-6.24666646 960.46646641 -25.25732913 960.08673288 -44.40234375 957.203125 C-45.84195706 956.99168166 -47.28157308 956.78025681 -48.72119141 956.56884766 C-139.15143585 943.12263908 -224.5696836 906.75956407 -294.171875 846.9609375 C-296.23008396 845.1928861 -298.30654417 843.46897524 -300.4140625 841.7578125 C-309.0656012 834.67928084 -316.94371083 826.85008073 -324.83984375 818.953125 C-325.40818939 818.38568573 -325.97653503 817.81824646 -326.56210327 817.23361206 C-332.72411197 811.07049102 -338.77112193 804.8616706 -344.40234375 798.203125 C-345.38668649 797.07305509 -346.37233591 795.94412185 -347.359375 794.81640625 C-371.59260703 766.88487962 -391.56507873 736.19987416 -409.04785156 703.69482422 C-410.16990252 701.63071966 -411.3156214 699.58630872 -412.48828125 697.55078125 C-439.10793211 650.32055684 -453.2323857 594.50991173 -460.40234375 541.203125 C-460.56750488 540.05618164 -460.73266602 538.90923828 -460.90283203 537.72753906 C-466.31963042 499.17696359 -465.79912837 457.73879979 -460.40234375 419.203125 C-460.2307373 417.91164551 -460.05913086 416.62016602 -459.88232422 415.28955078 C-452.63910585 361.15559261 -435.68797511 309.98451299 -411.40234375 261.203125 C-410.95810059 260.30529297 -410.51385742 259.40746094 -410.05615234 258.48242188 C-399.52292836 237.32882425 -387.14551517 217.13030866 -372.93603516 198.24707031 C-371.39182633 196.18910848 -369.8697503 194.11627483 -368.3515625 192.0390625 C-362.19634825 183.6596952 -355.69973986 175.6869393 -348.84521484 167.87255859 C-347.48790805 166.30212477 -346.1682062 164.70856468 -344.859375 163.09765625 C-337.94908401 154.66777719 -330.35335325 146.96579845 -322.65234375 139.265625 C-322.10873199 138.72110687 -321.56512024 138.17658875 -321.0050354 137.61557007 C-314.9833503 131.59502 -308.89403713 125.72044712 -302.40234375 120.203125 C-301.19875804 119.14653592 -299.99692452 118.08794745 -298.796875 117.02734375 C-290.89382604 110.08967758 -282.86296859 103.45682856 -274.40234375 97.203125 C-273.7283252 96.70312988 -273.05430664 96.20313477 -272.35986328 95.68798828 C-262.24407805 88.20971954 -251.94375645 81.10495023 -241.29980469 74.39941406 C-239.60223346 73.32914913 -237.91193934 72.24736198 -236.22265625 71.1640625 C-166.99558773 27.47009458 -82.16591292 0.31596282 0 0 Z " fill="#FEFEFE" transform="translate(463.40234375,-0.203125)"/>
<path d="M0 0 C6.02440876 4.58505098 9.63631946 10.34075814 11.75 17.5625 C12.58306056 25.68484041 10.86677919 32.53966794 8.87890625 40.421875 C8.54404619 41.77365897 8.20987104 43.12561275 7.87632751 44.47772217 C6.97109352 48.13797746 6.05549041 51.79556702 5.1378479 55.45272827 C4.36291941 58.54689324 3.59423911 61.64259621 2.82559395 64.73832703 C-2.88371744 87.73050519 -8.70613743 110.6942161 -14.55783081 133.6505127 C-19.97653413 154.90848992 -25.27566415 176.19346064 -30.5 197.5 C-36.04397546 220.10993417 -41.68531127 242.69214068 -47.4375 265.25 C-53.41749652 288.7037807 -59.2848802 312.18304205 -65.0625 335.6875 C-65.44178126 337.23033684 -65.8210639 338.77317335 -66.2003479 340.31600952 C-66.48146817 341.45956736 -66.48146817 341.45956736 -66.76826763 342.62622738 C-67.70863376 346.45137825 -68.64915568 350.27649079 -69.58984375 354.1015625 C-69.77488024 354.85403322 -69.95991673 355.60650394 -70.15056038 356.38177681 C-75.71410305 379.0012888 -81.37888374 401.59547513 -87.04225159 424.19015503 C-89.3885984 433.55229428 -91.72717317 442.91635634 -94.0625 452.28125 C-97.0560078 464.28499393 -100.05597866 476.28709984 -103.06478882 488.28701782 C-103.3905287 489.58620063 -103.71626316 490.88538479 -104.04199219 492.18457031 C-104.28352618 493.14791448 -104.28352618 493.14791448 -104.52993965 494.13072014 C-105.68871952 498.75402607 -106.84355882 503.37830681 -107.99707031 508.00292969 C-109.60276242 514.43980807 -111.21746956 520.87438223 -112.83782959 527.30758667 C-113.43854442 529.69808602 -114.03647621 532.08928671 -114.63140869 534.48123169 C-115.44977272 537.769407 -116.27831723 541.05485731 -117.109375 544.33984375 C-117.3441153 545.29305511 -117.57885559 546.24626648 -117.82070923 547.22836304 C-120.46809497 557.59262382 -124.01109072 567.63135827 -133.625 573.375 C-140.87942717 576.86787234 -148.98793294 577.1491756 -156.828125 575.3515625 C-163.65429156 572.90168064 -168.73926206 569.08035628 -172.28125 562.6875 C-177.36498707 551.64852808 -176.04676658 542.99390235 -173.0625 531.46875 C-172.58446753 529.57399751 -172.10643507 527.67924501 -171.62840271 525.78449249 C-171.11525147 523.75838425 -170.59740671 521.7335296 -170.078125 519.70898438 C-168.98019189 515.42814417 -167.89536351 511.14404825 -166.8125 506.859375 C-165.48950495 501.62789342 -164.16355888 496.39717821 -162.83370972 491.16743469 C-160.51405872 482.04389615 -158.21748462 472.91477742 -155.9375 463.78125 C-155.7743631 463.12777084 -155.6112262 462.47429169 -155.44314575 461.80101013 C-154.6230296 458.51529845 -153.80335669 455.22947641 -152.98388672 451.94360352 C-151.49212897 445.96294367 -149.99638955 439.98327911 -148.50100708 434.00352478 C-147.66718036 430.66905594 -146.83360259 427.33452487 -146 424 C-145.66666786 422.66666637 -145.33333453 421.33333303 -145 420 C-144.835 419.34 -144.67 418.68 -144.5 418 C-128 352 -111.5 286 -79 156 C-78.75249481 155.00997828 -78.75249481 155.00997828 -78.49998951 153.99995613 C-78.16669234 152.66676873 -77.83339398 151.33358163 -77.50009441 150.00039482 C-76.66619794 146.6648312 -75.83232233 143.32926236 -74.99848938 139.99368286 C-73.50523566 134.0203096 -72.01184551 128.04697066 -70.51765537 122.07383156 C-69.69265489 118.77580978 -68.86777938 115.47775676 -68.04296875 112.1796875 C-67.87930502 111.52527554 -67.71564129 110.87086357 -67.54701805 110.19662094 C-65.26550256 101.07292225 -62.98984597 91.94777805 -60.71829224 82.82159424 C-59.4446262 77.70463146 -58.16938239 72.58806223 -56.89380074 67.47157669 C-56.02756851 63.99651524 -55.16221412 60.5212406 -54.29907227 57.04541016 C-48.20460577 32.50750592 -48.20460577 32.50750592 -45.29296875 21.6796875 C-45.02749992 20.65936935 -45.02749992 20.65936935 -44.75666809 19.61843872 C-41.85764396 9.08408376 -37.12844733 2.79963734 -27.875 -2.9375 C-18.99066181 -6.19034693 -7.99246669 -4.84695207 0 0 Z " fill="#454C55" transform="translate(562,194)"/>
<path d="M0 0 C6.21727622 4.38287195 10.56109758 9.7146949 13 17 C13.265625 20.12109375 13.265625 20.12109375 13.25 23.4375 C13.25773437 25.07525391 13.25773437 25.07525391 13.265625 26.74609375 C12.45784052 36.64145358 6.5121442 42.80939235 -0.25 49.4375 C-0.92095703 50.10201172 -1.59191406 50.76652344 -2.28320312 51.45117188 C-6.17856429 55.28608127 -10.13558993 59.00248115 -14.3125 62.53125 C-16.74550841 64.64886843 -18.96748542 66.95784715 -21.2265625 69.2578125 C-23.04800415 71.04715827 -24.93714279 72.71288532 -26.875 74.375 C-29.8846753 76.96634205 -32.71088616 79.67254783 -35.5 82.5 C-38.88241399 85.9288279 -42.38070442 89.12048518 -46.03515625 92.25390625 C-48.10820324 94.09615675 -50.05435802 96.02401662 -52 98 C-54.55990134 100.59982183 -57.1677954 103.06268398 -59.9375 105.4375 C-62.92801716 108.00665271 -65.73116684 110.69317256 -68.5 113.5 C-71.88241399 116.9288279 -75.38070442 120.12048518 -79.03515625 123.25390625 C-81.81287196 125.72237329 -84.38602786 128.37639693 -86.9921875 131.0234375 C-89.59202058 133.58280625 -92.33615647 135.946844 -95.1015625 138.32421875 C-97.86402294 140.76268691 -100.42741059 143.36309585 -103 146 C-101.63578505 149.08865342 -100.1229872 151.07849356 -97.6484375 153.36328125 C-96.97006836 153.99524414 -96.29169922 154.62720703 -95.59277344 155.27832031 C-94.8609082 155.94959961 -94.12904297 156.62087891 -93.375 157.3125 C-91.82549736 158.7512768 -90.27601876 160.1900795 -88.7265625 161.62890625 C-87.93797852 162.3573877 -87.14939453 163.08586914 -86.33691406 163.83642578 C-83.45886329 166.50099807 -80.60082887 169.18633328 -77.74438477 171.87402344 C-72.16209266 177.12489044 -66.56089996 182.3556785 -60.9375 187.5625 C-60.40648682 188.05443848 -59.87547363 188.54637695 -59.32836914 189.05322266 C-56.50707795 191.65368586 -53.63972023 194.17465721 -50.6875 196.625 C-49.800625 197.40875 -48.91375 198.1925 -48 199 C-48 199.66 -48 200.32 -48 201 C-47.43796875 201.23332031 -46.8759375 201.46664062 -46.296875 201.70703125 C-43.43265858 203.31937076 -41.52747979 205.3193562 -39.25 207.6875 C-35.68054048 211.38937495 -31.971703 214.80548991 -28.08837891 218.16772461 C-23.90982854 221.83384812 -19.90601375 225.68838303 -15.87402344 229.51391602 C-12.04648639 233.14098271 -8.2003549 236.74015592 -4.29296875 240.28125 C-3.53169678 240.97806885 -2.7704248 241.6748877 -1.98608398 242.39282227 C-0.53979691 243.71530881 0.91464032 245.02896051 2.37866211 246.33178711 C8.12715327 251.62268693 13.42121987 258.29759245 14.23828125 266.34765625 C14.46469673 274.62969632 12.79576956 281.60761299 7.75 288.3125 C1.45797762 294.46152188 -5.40577108 297.96613857 -14.25 298.4375 C-25.36858932 298.16668186 -32.32698363 291.30763464 -40 284 C-41.38924447 282.78409707 -42.78462333 281.57514882 -44.1875 280.375 C-46.72487835 278.16814188 -49.1409486 275.89632761 -51.5 273.5 C-53.75797943 271.20673964 -56.05996504 269.03571972 -58.5 266.9375 C-64.49542326 261.76225988 -70.22267585 256.29253218 -75.99902344 250.87597656 C-79.22523471 247.85130509 -82.45564863 244.83114329 -85.6875 241.8125 C-86.31342041 241.22782959 -86.93934082 240.64315918 -87.58422852 240.04077148 C-92.32862355 235.61436706 -97.10834409 231.22849421 -101.8984375 226.8515625 C-105.49819229 223.5519827 -109.06010468 220.21214059 -112.625 216.875 C-117.53116488 212.28416985 -122.47509394 207.74412131 -127.484375 203.265625 C-131.03499303 200.06786342 -134.54060708 196.82232211 -138.04785156 193.57714844 C-141.6462598 190.24793731 -145.25643172 186.93229359 -148.875 183.625 C-149.84308594 182.72910156 -150.81117188 181.83320312 -151.80859375 180.91015625 C-154.13654494 178.76589322 -156.51272989 176.68727755 -158.91015625 174.62109375 C-167.44260916 167.15713126 -173.70842011 160.85828847 -175.4140625 149.16015625 C-175.83614404 141.24057367 -173.95138171 134.47282724 -168.7890625 128.3984375 C-164.37131131 123.89912783 -159.65225666 119.74251222 -154.86328125 115.64453125 C-152.38506948 113.45726258 -150.09635833 111.10720121 -147.78125 108.75 C-145.28103815 106.29365151 -142.62319484 104.03690632 -139.96875 101.75 C-138.06976929 100.06201714 -136.27994012 98.31230266 -134.5 96.5 C-132.24202057 94.20673964 -129.94003496 92.03571972 -127.5 89.9375 C-122.14476745 85.31770557 -117.02403955 80.44735285 -111.86328125 75.61328125 C-108.42402112 72.39222448 -104.96661612 69.1915646 -101.5 66 C-94.94123788 59.95715218 -88.422549 53.87184136 -81.90722656 47.78222656 C-78.15067683 44.27188183 -74.39121491 40.76465602 -70.63208008 37.25708008 C-67.46805173 34.30451009 -64.30518933 31.35070905 -61.14453125 28.39453125 C-53.47003509 21.21868256 -45.78566185 14.05538797 -38 7 C-37.32324219 6.38253906 -36.64648438 5.76507813 -35.94921875 5.12890625 C-25.4103748 -4.24155145 -12.69967366 -7.77825003 0 0 Z " fill="#454B55" transform="translate(268,333)"/>
<path d="M0 0 C5.31062548 3.29867045 9.79365403 8.00631877 14.29785156 12.31201172 C16.32538762 14.23251242 18.41107071 16.08419068 20.5 17.9375 C26.99543117 23.76779902 33.32915745 29.77125999 39.6875 35.75 C42.93184897 38.79772176 46.1836088 41.83747144 49.4375 44.875 C50.05786133 45.45411133 50.67822266 46.03322266 51.31738281 46.62988281 C55.26176347 50.30839685 59.22018502 53.97124866 63.1875 57.625 C72.17638268 65.90518112 81.07164233 74.28575651 89.97265625 82.66015625 C96.35679631 88.66235196 102.75498201 94.63713508 109.2890625 100.4765625 C113.26436377 104.04802364 117.19132693 107.67016687 121.1015625 111.3125 C123.75595044 113.78224771 126.44533339 116.20871292 129.1484375 118.625 C147.76701579 135.42010928 147.76701579 135.42010928 148.5 149.25 C147.92082075 161.68976306 140.53910934 168.62059655 131.75 176.6875 C129.72148175 178.49386455 127.67701524 180.277008 125.61328125 182.04296875 C123.13369142 184.2314537 120.8437882 186.58294013 118.52734375 188.94140625 C116.68406426 190.75227643 114.77177201 192.44071354 112.8125 194.125 C110.00423653 196.54367779 107.35029407 199.04649683 104.75 201.6875 C101.54970478 204.93779983 98.20775424 207.93474245 94.75 210.90625 C91.96114467 213.39007428 89.37313017 216.05461437 86.75390625 218.71484375 C84.16753849 221.26087829 81.4346472 223.60771557 78.68359375 225.97265625 C76.79505403 227.64754299 75.01844352 229.38697587 73.25 231.1875 C70.85946833 233.62139732 68.39953738 235.90105559 65.8125 238.125 C63.00423653 240.54367779 60.35029407 243.04649683 57.75 245.6875 C54.5284145 248.95952128 51.16407855 251.98066055 47.68359375 254.97265625 C45.79505403 256.64754299 44.01844352 258.38697587 42.25 260.1875 C39.85946833 262.62139732 37.39953738 264.90105559 34.8125 267.125 C32.00423653 269.54367779 29.35029407 272.04649683 26.75 274.6875 C23.52865065 277.95928143 20.16974342 280.98403724 16.6796875 283.96484375 C14.77753681 285.66291754 13.05548638 287.45304679 11.3125 289.3125 C5.31625945 295.41851155 -3.19766857 299.90619938 -11.8125 300.1875 C-19.85474997 300.01912777 -26.68011513 297.18142987 -32.453125 291.53125 C-38.46441597 284.15605267 -40.93905829 277.50188914 -40.64453125 267.95703125 C-39.16354529 255.68391002 -29.19440079 247.97599879 -20.39453125 240.32421875 C-16.24768025 236.71317205 -12.24013409 232.97010939 -8.25 229.1875 C-6.75533448 227.77590808 -5.26053968 226.36445305 -3.765625 224.953125 C-3.01474609 224.24349609 -2.26386719 223.53386719 -1.49023438 222.80273438 C7.23474101 214.56459284 15.99561614 206.36576403 24.82397461 198.23852539 C31.15358672 192.40527741 37.42314359 186.50802326 43.69726562 180.61523438 C47.06750805 177.45022079 50.4398259 174.287422 53.8125 171.125 C54.46323486 170.51479004 55.11396973 169.90458008 55.78442383 169.27587891 C62.76220668 162.73491028 69.75504499 156.21009455 76.75 149.6875 C75.27761526 146.15220188 73.33999241 144.21345994 70.4375 141.75 C67.06990881 138.83821335 63.85983154 135.87707081 60.75 132.6875 C56.236668 128.07605209 51.64368608 123.67426148 46.75 119.46875 C44.04153337 117.05652191 41.51847355 114.48341903 39 111.875 C37.04928431 109.97847086 35.05750988 108.19278958 33.00390625 106.41015625 C28.79507609 102.75381408 24.73248292 98.96084162 20.6875 95.125 C19.18904786 93.70937522 17.69034522 92.29401555 16.19140625 90.87890625 C15.44648926 90.17523926 14.70157227 89.47157227 13.93408203 88.74658203 C10.67489982 85.67393026 7.40137092 82.61680289 4.125 79.5625 C3.51382324 78.99257324 2.90264648 78.42264648 2.27294922 77.83544922 C1.04486898 76.6904746 -0.18332053 75.54561717 -1.41162109 74.40087891 C-3.26043367 72.67777577 -5.10884509 70.95424375 -6.95703125 69.23046875 C-7.57255859 68.6566748 -8.18808594 68.08288086 -8.82226562 67.49169922 C-10.06097964 66.33502568 -11.29797504 65.17650876 -12.53320312 64.01611328 C-15.84403504 60.90938565 -19.18388278 57.84415012 -22.57421875 54.82421875 C-36.46414418 42.33922615 -36.46414418 42.33922615 -39.25 33.6875 C-39.745 32.2025 -39.745 32.2025 -40.25 30.6875 C-41.25011855 21.75201458 -39.0830786 14.03872816 -33.625 6.875 C-25.32236285 -1.79755663 -11.25393083 -4.75584525 0 0 Z " fill="#454B55" transform="translate(718.25,331.3125)"/>
<path d="M0 0 C0.66 0.66 1.32 1.32 2 2 C1.01 2.495 1.01 2.495 0 3 C-0.12375 3.639375 -0.2475 4.27875 -0.375 4.9375 C-0.684375 5.9584375 -0.684375 5.9584375 -1 7 C-2.32069313 7.69136956 -3.65703453 8.35295598 -5 9 C-6.58923356 10.10845702 -8.15123038 11.25673079 -9.6875 12.4375 C-10.86892578 13.33275391 -10.86892578 13.33275391 -12.07421875 14.24609375 C-14.25237725 15.9430335 -14.25237725 15.9430335 -15 19 C-15.99 19.33 -16.98 19.66 -18 20 C-18 20.66 -18 21.32 -18 22 C-17.34 22.33 -16.68 22.66 -16 23 C-17.32 23.33 -18.64 23.66 -20 24 C-20.66 23.01 -21.32 22.02 -22 21 C-9.8649981 8.68297308 -9.8649981 8.68297308 -3.5234375 3.3046875 C-2.30041699 2.25728019 -1.13860468 1.13860468 0 0 Z " fill="#E8EAEE" transform="translate(827,528)"/>
<path d="M0 0 C0.66 1.32 1.32 2.64 2 4 C-1.53337351 6.90983701 -5.19386046 9.46257364 -9 12 C-12.55278974 14.53578763 -12.55278974 14.53578763 -15 18 C-15.66 18 -16.32 18 -17 18 C-16.67 19.32 -16.34 20.64 -16 22 C-16.99 22.33 -17.98 22.66 -19 23 C-19.66 22.01 -20.32 21.02 -21 20 C-15.723967 14.62666311 -10.43257016 9.35084772 -4.69140625 4.47265625 C-3.05216211 3.04541597 -1.51774524 1.55487662 0 0 Z " fill="#F3F4F5" transform="translate(188,456)"/>
<path d="M0 0 C1 3 1 3 0.0625 5.1875 C-0.288125 5.785625 -0.63875 6.38375 -1 7 C-0.34 7.33 0.32 7.66 1 8 C0.34 8 -0.32 8 -1 8 C-1.33 8.66 -1.66 9.32 -2 10 C-2 9.34 -2 8.68 -2 8 C-4.50965614 8.70339566 -4.50965614 8.70339566 -7 10 C-7.98617135 11.94285168 -7.98617135 11.94285168 -8 14 C-7.67 14.66 -7.34 15.32 -7 16 C-9.375 16.1875 -9.375 16.1875 -12 16 C-12.66 15.01 -13.32 14.02 -14 13 C-4.58997722 3.40546697 -4.58997722 3.40546697 0 0 Z " fill="#4A4F57" transform="translate(790,486)"/>
<path d="M0 0 C0.99 0.33 1.98 0.66 3 1 C-0.3 3.97 -3.6 6.94 -7 10 C-9.35953094 7.64046906 -9.49141413 6.22104383 -10 3 C-8.68 2.34 -7.36 1.68 -6 1 C-5.67 1.33 -5.34 1.66 -5 2 C-2.2314691 1.54738933 -2.2314691 1.54738933 0 0 Z " fill="#474C55" transform="translate(850,504)"/>
<path d="M0 0 C0.99 1.32 1.98 2.64 3 4 C2.07347299 5.17539996 1.13336613 6.34010577 0.1875 7.5 C-0.33457031 8.1496875 -0.85664062 8.799375 -1.39453125 9.46875 C-3 11 -3 11 -6 11 C-6 10.34 -6 9.68 -6 9 C-6.66 9 -7.32 9 -8 9 C-8 8.34 -8 7.68 -8 7 C-6.865625 6.5875 -5.73125 6.175 -4.5625 5.75 C-0.90456616 4.43314602 -0.90456616 4.43314602 -0.0625 1.8125 C-0.041875 1.214375 -0.02125 0.61625 0 0 Z " fill="#4E5059" transform="translate(858,492)"/>
<path d="M0 0 C7.48291572 6.15034169 7.48291572 6.15034169 10 10 C5.545 9.01 5.545 9.01 1 8 C1 6.68 1 5.36 1 4 C0.01 4.33 -0.98 4.66 -2 5 C-1.34 3.35 -0.68 1.7 0 0 Z " fill="#53565E" transform="translate(851,454)"/>
<path d="M0 0 C1.125 1.75 1.125 1.75 2 4 C1.125 6.25 1.125 6.25 0 8 C-0.99 7.67 -1.98 7.34 -3 7 C-3.99 7.825 -4.98 8.65 -6 9.5 C-6.99 10.325 -7.98 11.15 -9 12 C-9.99 11.67 -10.98 11.34 -12 11 C-11.30132813 10.37351562 -10.60265625 9.74703125 -9.8828125 9.1015625 C-8.97273437 8.28429687 -8.06265625 7.46703125 -7.125 6.625 C-5.76761719 5.40683594 -5.76761719 5.40683594 -4.3828125 4.1640625 C-2.89103817 2.80923795 -1.42494565 1.42494565 0 0 Z " fill="#EDEDF0" transform="translate(844,512)"/>
<path d="M0 0 C1.32 1.32 2.64 2.64 4 4 C2.8125 5.5 2.8125 5.5 1 7 C-1.6875 7.1875 -1.6875 7.1875 -4 7 C-3.01 8.65 -2.02 10.3 -1 12 C-4.16115776 10.63016497 -4.9927092 10.0109362 -7 7 C-4.69 4.69 -2.38 2.38 0 0 Z " fill="#4C5259" transform="translate(119,443)"/>
<path d="M0 0 C3.80635497 3.20760251 7.54563567 6.40746109 11 10 C10.01 10.33 9.02 10.66 8 11 C6.50110517 9.76178253 5.00580826 8.51742945 3.5625 7.21484375 C1.48609368 5.60043783 -0.40982002 5.22854529 -3 5 C-2.34 4.67 -1.68 4.34 -1 4 C-0.34786708 1.97536745 -0.34786708 1.97536745 0 0 Z " fill="#50545B" transform="translate(165,482)"/>
<path d="M0 0 C0.6875 1.75 0.6875 1.75 1 4 C-0.76044241 7.15026536 -2.61745816 8.76998479 -6 10 C-7.32 10 -8.64 10 -10 10 C-6.66666667 6.66666667 -3.33333333 3.33333333 0 0 Z " fill="#F3F2F7" transform="translate(733,616)"/>
<path d="M0 0 C0.66 0.99 1.32 1.98 2 3 C-0.97 5.97 -3.94 8.94 -7 12 C-7.66 11.34 -8.32 10.68 -9 10 C-6.03 6.7 -3.06 3.4 0 0 Z " fill="#52565E" transform="translate(203,438)"/>
<path d="M0 0 C2.125 0.9375 2.125 0.9375 4 2 C4.33 1.34 4.66 0.68 5 0 C5 1.65 5 3.3 5 5 C5.66 5.33 6.32 5.66 7 6 C7.625 8.5625 7.625 8.5625 8 11 C0.51708428 4.84965831 0.51708428 4.84965831 -2 1 C-1.34 0.67 -0.68 0.34 0 0 Z " fill="#51555D" transform="translate(746,429)"/>
<path d="M0 0 C1.32 0.99 2.64 1.98 4 3 C2.1875 5 2.1875 5 0 7 C-0.99 7 -1.98 7 -3 7 C-3.66 6.34 -4.32 5.68 -5 5 C-3.35 3.35 -1.7 1.7 0 0 Z " fill="#F5F5F6" transform="translate(237,625)"/>
<path d="M0 0 C1.17539996 0.92652701 2.34010577 1.86663387 3.5 2.8125 C4.1496875 3.33457031 4.799375 3.85664062 5.46875 4.39453125 C7 6 7 6 7 9 C3.15314615 7.75237172 0.97070595 6.6129609 -1 3 C-0.67 2.01 -0.34 1.02 0 0 Z " fill="#F2F3F3" transform="translate(227,616)"/>
<path d="M0 0 C1.98 1.65 3.96 3.3 6 5 C5.67 6.32 5.34 7.64 5 9 C2.69 7.02 0.38 5.04 -2 3 C-1.34 2.01 -0.68 1.02 0 0 Z " fill="#F0F0F2" transform="translate(842,441)"/>
<path d="M0 0 C0 3.99904969 -1.72586967 5.80200422 -4 9 C-6 7 -6 7 -6.125 4.375 C-6.08375 3.59125 -6.0425 2.8075 -6 2 C-4.02 1.34 -2.04 0.68 0 0 Z " fill="#51545B" transform="translate(279,366)"/>
<path d="M0 0 C0.99 0.33 1.98 0.66 3 1 C3 1.66 3 2.32 3 3 C1.35 3.66 -0.3 4.32 -2 5 C-2 5.66 -2 6.32 -2 7 C-2.66 7 -3.32 7 -4 7 C-4.33 7.99 -4.66 8.98 -5 10 C-5.66 9.01 -6.32 8.02 -7 7 C-4.69 4.69 -2.38 2.38 0 0 Z " fill="#51555D" transform="translate(753,520)"/>
<path d="M0 0 C0 3.93169105 -1.39419615 5.16427228 -4 8 C-4.66 8 -5.32 8 -6 8 C-5.67 9.32 -5.34 10.64 -5 12 C-5.99 12.33 -6.98 12.66 -8 13 C-8.66 12.01 -9.32 11.02 -10 10 C-6.7 6.7 -3.4 3.4 0 0 Z " fill="#E6E7E9" transform="translate(177,466)"/>
<path d="M0 0 C1.32 1.32 2.64 2.64 4 4 C3.01 4.495 3.01 4.495 2 5 C2 5.99 2 6.98 2 8 C0.35 7.01 -1.3 6.02 -3 5 C-1.125 1.125 -1.125 1.125 0 0 Z " fill="#F6F5F8" transform="translate(140,536)"/>
<path d="M0 0 C1.65 0 3.3 0 5 0 C5.99 2.31 6.98 4.62 8 7 C5 7 5 7 2.3125 4.625 C0 2 0 2 0 0 Z " fill="#EFF1F2" transform="translate(269,577)"/>
<path d="M0 0 C0 3.10551666 -0.5393715 4.35261084 -2 7 C-2.99 7 -3.98 7 -5 7 C-5 7.99 -5 8.98 -5 10 C-5.99 10 -6.98 10 -8 10 C-8.33 10.66 -8.66 11.32 -9 12 C-9 9 -9 9 -7.03125 6.73828125 C-5.77828125 5.53751953 -5.77828125 5.53751953 -4.5 4.3125 C-3.6646875 3.50425781 -2.829375 2.69601562 -1.96875 1.86328125 C-1.3190625 1.24839844 -0.669375 0.63351562 0 0 Z " fill="#ECEFF1" transform="translate(273,376)"/>
<path d="M0 0 C1.32 1.32 2.64 2.64 4 4 C2.35 5.32 0.7 6.64 -1 8 C-1.66 6.35 -2.32 4.7 -3 3 C-2.01 2.01 -1.02 1.02 0 0 Z " fill="#F5F5F8" transform="translate(524,192)"/>
<path d="M0 0 C0.639375 0.309375 1.27875 0.61875 1.9375 0.9375 C5.92049104 2.31935403 9.81650849 2.6536543 14 3 C14 3.33 14 3.66 14 4 C12.08364783 4.05423638 10.16685075 4.09289963 8.25 4.125 C6.64898438 4.15980469 6.64898438 4.15980469 5.015625 4.1953125 C2.07529894 4.00487687 0.47638122 3.52670104 -2 2 C-1.34 1.34 -0.68 0.68 0 0 Z " fill="#606469" transform="translate(698,627)"/>
<path d="M0 0 C-0.33 0.66 -0.66 1.32 -1 2 C-1.99 2.33 -2.98 2.66 -4 3 C-4 3.66 -4 4.32 -4 5 C-3.34 5.33 -2.68 5.66 -2 6 C-3.32 6.33 -4.64 6.66 -6 7 C-6.66 6.01 -7.32 5.02 -8 4 C-4.5 0 -4.5 0 0 0 Z " fill="#F2F4F5" transform="translate(813,545)"/>
<path d="M0 0 C2.4375 1.1875 2.4375 1.1875 5 3 C5.8125 5.6875 5.8125 5.6875 6 8 C4.68 7.34 3.36 6.68 2 6 C2 5.34 2 4.68 2 4 C0.68 3.34 -0.64 2.68 -2 2 C-1.34 1.34 -0.68 0.68 0 0 Z " fill="#E9EEF1" transform="translate(218,528)"/>
<path d="M0 0 C1.98 0 3.96 0 6 0 C5.04578192 1.14926266 4.08647955 2.29430541 3.125 3.4375 C2.59132813 4.07558594 2.05765625 4.71367188 1.5078125 5.37109375 C0 7 0 7 -2 8 C-2 7.01 -2 6.02 -2 5 C-1.34 5 -0.68 5 0 5 C-0.33 4.01 -0.66 3.02 -1 2 C-0.67 1.34 -0.34 0.68 0 0 Z " fill="#555861" transform="translate(836,514)"/>
<path d="M0 0 C1.65 1.65 3.3 3.3 5 5 C4.67 5.99 4.34 6.98 4 8 C2.02 6.35 0.04 4.7 -2 3 C-1.34 2.01 -0.68 1.02 0 0 Z " fill="#EEEFF0" transform="translate(731,338)"/>
<path d="M0 0 C-0.5625 2.375 -0.5625 2.375 -2 5 C-5.625 6.3125 -5.625 6.3125 -9 7 C-3.34042553 0 -3.34042553 0 0 0 Z " fill="#E8E9ED" transform="translate(759,594)"/>
<path d="M0 0 C2.88575819 0.39803561 3.82189513 0.79009069 5.75 3.0625 C6.1625 3.701875 6.575 4.34125 7 5 C6.01 5.66 5.02 6.32 4 7 C2 5.1875 2 5.1875 0 3 C0 2.01 0 1.02 0 0 Z " fill="#F5F7F8" transform="translate(193,505)"/>
<path d="M0 0 C1.98 0 3.96 0 6 0 C6 0.99 6 1.98 6 3 C4 4.6875 4 4.6875 2 6 C0 2.25 0 2.25 0 0 Z " fill="#EDEDEE" transform="translate(121,434)"/>
<path d="M0 0 C0.66 1.32 1.32 2.64 2 4 C1.34 4 0.68 4 0 4 C0.33 4.99 0.66 5.98 1 7 C-0.98 7.99 -0.98 7.99 -3 9 C-3.75 6.75 -3.75 6.75 -4 4 C-2.0625 1.6875 -2.0625 1.6875 0 0 Z " fill="#555862" transform="translate(234,336)"/>
<path d="M0 0 C0 0.66 0 1.32 0 2 C-2.5654594 4.5654594 -4.47686668 4.54046087 -8 5 C-8 4.34 -8 3.68 -8 3 C-8.66 2.67 -9.32 2.34 -10 2 C-6.38026598 0.68373308 -3.90432869 0 0 0 Z " fill="#595C64" transform="translate(252,329)"/>
<path d="M0 0 C2.64 0.66 5.28 1.32 8 2 C7.01 2.495 7.01 2.495 6 3 C6 3.66 6 4.32 6 5 C6.66 5.33 7.32 5.66 8 6 C7.01 6.33 6.02 6.66 5 7 C3.29115995 5.37660195 1.62553283 3.70680947 0 2 C0 1.34 0 0.68 0 0 Z " fill="#53565C" transform="translate(230,617)"/>
<path d="M0 0 C2.31 1.98 4.62 3.96 7 6 C6.34 6.66 5.68 7.32 5 8 C2 7 2 7 0.8125 5.125 C0 3 0 3 0 0 Z " fill="#53595E" transform="translate(249,560)"/>
<path d="M0 0 C0.99 0.33 1.98 0.66 3 1 C0.03 3.475 0.03 3.475 -3 6 C-3.99 5.34 -4.98 4.68 -6 4 C-5.67 3.01 -5.34 2.02 -5 1 C-3.68 1 -2.36 1 -1 1 C-0.67 0.67 -0.34 0.34 0 0 Z " fill="#575960" transform="translate(850,504)"/>
<path d="M0 0 C0.33 0.66 0.66 1.32 1 2 C2.65 2 4.3 2 6 2 C6.33 2.99 6.66 3.98 7 5 C6.34 5 5.68 5 5 5 C4.67 5.66 4.34 6.32 4 7 C2.35 5.02 0.7 3.04 -1 1 C-0.67 0.67 -0.34 0.34 0 0 Z " fill="#4E5258" transform="translate(774,456)"/>
<path d="M0 0 C0.33 0.66 0.66 1.32 1 2 C1.99 2.33 2.98 2.66 4 3 C2.35 4.32 0.7 5.64 -1 7 C-1.625 4.625 -1.625 4.625 -2 2 C-1.34 1.34 -0.68 0.68 0 0 Z " fill="#4E535A" transform="translate(182,456)"/>
<path d="M0 0 C1.9375 0.3125 1.9375 0.3125 4 1 C4.33 1.99 4.66 2.98 5 4 C5.99 4.33 6.98 4.66 8 5 C7.34 5 6.68 5 6 5 C5.67 5.66 5.34 6.32 5 7 C3.29115995 5.37660195 1.62553283 3.70680947 0 2 C0 1.34 0 0.68 0 0 Z " fill="#E4E6E9" transform="translate(816,420)"/>
<path d="M0 0 C0.66 0.66 1.32 1.32 2 2 C1.01 2.495 1.01 2.495 0 3 C-0.65213292 5.02463255 -0.65213292 5.02463255 -1 7 C-2.32 7.33 -3.64 7.66 -5 8 C-5 5 -5 5 -2.5 2.3125 C-1.675 1.549375 -0.85 0.78625 0 0 Z " fill="#EFF0F4" transform="translate(827,528)"/>
<path d="M0 0 C2.31 0.33 4.62 0.66 7 1 C6.01 1.495 6.01 1.495 5 2 C5 2.66 5 3.32 5 4 C5.66 4.33 6.32 4.66 7 5 C6.01 5.33 5.02 5.66 4 6 C2.62437146 4.71034824 1.29233607 3.37310707 0 2 C0 1.34 0 0.68 0 0 Z " fill="#53575F" transform="translate(127,522)"/>
<path d="M0 0 C0 4.24645065 -1.81750806 6.38524772 -4 10 C-4.66 9.67 -5.32 9.34 -6 9 C-4.68775452 5.06326356 -3.08089673 2.77280706 0 0 Z " fill="#4D5059" transform="translate(215,354)"/>
<path d="M0 0 C1.98 1.65 3.96 3.3 6 5 C5.01 5.99 4.02 6.98 3 8 C1.58622659 5.36095629 0.62759865 2.92879371 0 0 Z " fill="#F6F8F9" transform="translate(218,608)"/>
<path d="M0 0 C1.98 0 3.96 0 6 0 C6.33 0.99 6.66 1.98 7 3 C7.66 3.66 8.32 4.32 9 5 C8.01 5.33 7.02 5.66 6 6 C2.8125 3.625 2.8125 3.625 0 1 C0 0.67 0 0.34 0 0 Z " fill="#545960" transform="translate(198,589)"/>
<path d="M0 0 C2.2477975 2.05233685 3.0022242 3.00667261 4 6 C3.01 6 2.02 6 1 6 C-1.1875 3.5 -1.1875 3.5 -3 1 C-2.01 0.67 -1.02 0.34 0 0 Z " fill="#E7E7E8" transform="translate(187,498)"/>
<path d="M0 0 C2.88437779 1.29299694 4.87219421 2.65941363 7 5 C6.67 5.99 6.34 6.98 6 8 C4.9970458 6.85675161 3.99770973 5.71032809 3 4.5625 C2.443125 3.92441406 1.88625 3.28632813 1.3125 2.62890625 C0 1 0 1 0 0 Z " fill="#5C5F63" transform="translate(97,494)"/>
<path d="M0 0 C0.33 0.99 0.66 1.98 1 3 C-1.85306797 5.32472205 -4.54074837 6.7508258 -8 8 C-5.33333333 5.33333333 -2.66666667 2.66666667 0 0 Z " fill="#5D6167" transform="translate(790,486)"/>
<path d="M0 0 C2.88575819 0.39803561 3.82189513 0.79009069 5.75 3.0625 C6.1625 3.701875 6.575 4.34125 7 5 C5.68 4.67 4.36 4.34 3 4 C3 4.66 3 5.32 3 6 C2.34 5.67 1.68 5.34 1 5 C0.375 2.4375 0.375 2.4375 0 0 Z " fill="#4D5358" transform="translate(809,417)"/>
<path d="M0 0 C3 1 3 1 5 4 C4.67 4.99 4.34 5.98 4 7 C2.35 5.02 0.7 3.04 -1 1 C-0.67 0.67 -0.34 0.34 0 0 Z " fill="#5F6569" transform="translate(222,609)"/>
<path d="M0 0 C1.98 1.65 3.96 3.3 6 5 C5.34 5.66 4.68 6.32 4 7 C4 6.34 4 5.68 4 5 C3.34 5 2.68 5 2 5 C1.67 5.66 1.34 6.32 1 7 C0 2.25 0 2.25 0 0 Z " fill="#EFF3F6" transform="translate(176,569)"/>
<path d="M0 0 C1.32 0 2.64 0 4 0 C3.1875 2.4375 3.1875 2.4375 2 5 C1.01 5.33 0.02 5.66 -1 6 C-1.042721 4.33388095 -1.04063832 2.66617115 -1 1 C-0.67 0.67 -0.34 0.34 0 0 Z " fill="#F8F8F9" transform="translate(827,530)"/>
<path d="M0 0 C1.65 0 3.3 0 5 0 C3.35 1.65 1.7 3.3 0 5 C-0.66 4.67 -1.32 4.34 -2 4 C-1.34 2.68 -0.68 1.36 0 0 Z " fill="#E6EBEE" transform="translate(738,530)"/>
<path d="M0 0 C0 3.64478912 -0.85802506 5.09303401 -3 8 C-5.1875 8.8125 -5.1875 8.8125 -7 9 C-5.44499019 5.18315774 -2.96404505 2.80804268 0 0 Z " fill="#EAEFF2" transform="translate(239,408)"/>
<path d="M0 0 C0.33 0.66 0.66 1.32 1 2 C1.66 2.33 2.32 2.66 3 3 C1.68 3.99 0.36 4.98 -1 6 C-1.99 5.01 -2.98 4.02 -4 3 C-2.68 2.01 -1.36 1.02 0 0 Z " fill="#EEEFF2" transform="translate(434,762)"/>
<path d="M0 0 C1 3 1 3 -0.4375 6.1875 C-1.2109375 7.5796875 -1.2109375 7.5796875 -2 9 C-2.99 8.67 -3.98 8.34 -5 8 C-5 7.34 -5 6.68 -5 6 C-4.34 6 -3.68 6 -3 6 C-3 5.34 -3 4.68 -3 4 C-2.34 4 -1.68 4 -1 4 C-0.67 2.68 -0.34 1.36 0 0 Z " fill="#60646A" transform="translate(865,485)"/>
<path d="M0 0 C0.33 0.66 0.66 1.32 1 2 C1.66 2 2.32 2 3 2 C3 1.34 3 0.68 3 0 C3.99 0.33 4.98 0.66 6 1 C5.34 2.65 4.68 4.3 4 6 C2.35 4.35 0.7 2.7 -1 1 C-0.67 0.67 -0.34 0.34 0 0 Z " fill="#5A6064" transform="translate(766,449)"/>
<path d="M0 0 C1.65 1.65 3.3 3.3 5 5 C1.89448334 5 0.64738916 4.4606285 -2 3 C-1.34 2.01 -0.68 1.02 0 0 Z " fill="#5A5D65" transform="translate(822,427)"/>
<path d="M0 0 C1.32 0.99 2.64 1.98 4 3 C3.67 3.99 3.34 4.98 3 6 C2.01 6 1.02 6 0 6 C-0.38218767 4.34385343 -0.71395102 2.67542976 -1 1 C-0.67 0.67 -0.34 0.34 0 0 Z " fill="#EFF3F3" transform="translate(393,761)"/>
<path d="M0 0 C0.66 0.33 1.32 0.66 2 1 C0.02 3.31 -1.96 5.62 -4 8 C-4.66 7.34 -5.32 6.68 -6 6 C-4.02 4.02 -2.04 2.04 0 0 Z " fill="#EFEFF3" transform="translate(860,497)"/>
<path d="M0 0 C1.32 0.66 2.64 1.32 4 2 C1.03 4.475 1.03 4.475 -2 7 C-1.42415568 4.61435923 -0.77772405 2.33317216 0 0 Z " fill="#E6EAEC" transform="translate(112,445)"/>
<path d="M0 0 C1.32 0.66 2.64 1.32 4 2 C2.35 3.32 0.7 4.64 -1 6 C-1.33 5.01 -1.66 4.02 -2 3 C-1.34 2.01 -0.68 1.02 0 0 Z " fill="#4E555B" transform="translate(250,393)"/>
<path d="M0 0 C1.32 0.66 2.64 1.32 4 2 C3.01 2.99 2.02 3.98 1 5 C0.01 4.67 -0.98 4.34 -2 4 C-1.34 2.68 -0.68 1.36 0 0 Z " fill="#F5F5F9" transform="translate(229,336)"/>
</svg>
